# Alias OBJ Model File
# Exported from SketchUp, (c) 2000-2012 Trimble Navigation Limited
# File units = centimeters

mtllib 100x100cm Desk.mtl

g Mesh1 TableTop Model

usemtl Color_M00
v 0 75.5 -96.5
vt 0 39.3701
vn 0 1 -0
v 0 75.5 3.5
vt 0 0
v 100 75.5 3.5
vt 39.3701 0
v 100 75.5 -96.5
vt 39.3701 39.3701
f 1/1/1 2/2/1 3/3/1 4/4/1 

usemtl Wood
v 0 73 -96.5
vt -10 0
vn -1 0 -0
v 0 73 3.5
vt 0 0.5
vt -10 0.5
f 5/5/2 6/2/2 2/6/2 1/7/2 

vn 0 -1 -0
vt 0 20
v 100 73 -96.5
vt -10 20
v 100 73 3.5
f 6/2/3 5/8/3 7/9/3 8/5/3 

vn 0 0 -1
f 7/5/4 5/2/4 1/6/4 4/7/4 

vn 1 0 -0
vt 10 0
vt 10 0.5
f 8/2/5 7/10/5 4/11/5 3/6/5 

vn 0 0 1
f 6/2/6 8/10/6 3/11/6 2/6/6 

g Mesh2 DrawerPlate Model

v 96.2029 62.9933 -47.25
vt 9.25 0
v 96.2029 72.9933 -47.25
vt 9.25 2
v 3.70285 72.9933 -47.25
vt 0 2
v 3.70285 62.9933 -47.25
f 9/12/6 10/13/6 11/14/6 12/2/6 

v 3.70285 62.9933 -3.25
vt 0 1
vn -1.26538e-15 1 -1.9135e-15
v 6.70285 62.9933 -3.25
vt 0.3 1
v 6.70285 62.9933 -1.75
vt 0.3 0.7
v 93.2029 62.9933 -1.75
vt 8.95 0.7
v 93.2029 62.9933 -3.25
vt 8.95 1
v 96.2029 62.9933 -3.25
vt 9.25 1
vt 9.25 9.8
vt 0 9.8
f 13/15/7 14/16/7 15/17/7 16/18/7 17/19/7 18/20/7 9/21/7 12/22/7 

g Mesh3 UnderDrawer Model

usemtl FrontColor
v 6.70285 60.9933 -1.75
vt -1.37795 0
v 6.70285 60.9933 1.75
v 6.70285 62.9933 1.75
vt 0 0.787402
v 6.70285 62.9933 -1.75
vt -1.37795 0.787402
f 19/23/2 20/2/2 21/24/2 22/25/2 

usemtl Wood
v 93.2029 60.9933 -1.75
vt -8.65 0.7
v 93.2029 60.9933 1.75
vt -8.65 0
vt 0 0.7
f 23/26/3 24/27/3 20/2/3 19/28/3 

usemtl FrontColor
vt 1.37795 0
v 93.2029 62.9933 -1.75
vt 1.37795 0.787402
v 93.2029 62.9933 1.75
f 24/2/5 23/29/5 25/30/5 26/24/5 

vt -34.0551 0
vt -34.0551 0.787402
f 23/31/4 19/2/4 22/24/4 25/32/4 

usemtl Wood
vt 8.65 0
vt 8.65 0.7
f 26/33/1 25/34/1 22/28/1 21/2/1 

vt 8.65 0.4
vt 0 0.4
f 20/2/6 24/33/6 26/35/6 21/36/6 

g Mesh4 DrawerMiddle Model

v 48.7029 62.9933 1.75
vt 9.38485e-14 -2.03251e-27
v 51.2029 62.9933 1.75
vt -8.81286e-08 -1
v 51.2029 72.9933 1.75
vt 2 -0.999999
v 48.7029 72.9933 1.75
vt 2 -4.33147e-14
f 27/37/6 28/38/6 29/39/6 30/40/6 

v 51.2029 72.9933 -47.25
vt 4.9 2
vt 0 9.38485e-14
v 51.2029 62.9933 -47.25
vt 4.9 0
f 31/41/5 29/14/5 28/42/5 32/43/5 

v 48.7029 72.9933 -47.25
vt -4.9 2
v 48.7029 62.9933 -47.25
vt -4.9 0
f 27/42/2 30/14/2 33/44/2 34/45/2 

g Mesh5 TableLeg1 Model

usemtl FrontColor
v 1.70285 -0.00672244 1.75
v 1.70285 -0.00672244 -3.25
vt 0 1.9685
v 6.70285 -0.00672244 -3.25
vt -1.9685 1.9685
v 6.70285 -0.00672244 1.75
vt -1.9685 0
f 35/2/3 36/46/3 37/47/3 38/48/3 

usemtl Wood
vt -5.5 8
vt -5.5 7
v 1.70285 72.9933 1.75
vt 1.8 7
v 1.70285 72.9933 -3.25
vt 1.8 8
f 36/49/2 35/50/2 39/51/2 40/52/2 

vt -5.5 11
vt -5.5 10
v 6.70285 72.9933 1.75
vt 1.8 10
vt 1.8 11
f 35/53/6 38/54/6 41/55/6 39/56/6 

vt -5.00001 10
vt -5.00001 9
v 6.70285 72.9933 -3.25
vt 2.3 9
vt 2.3 10
f 38/57/5 37/58/5 42/59/5 41/60/5 

vt -6.00006 8.99999
vt -6.00006 7.99998
vt 1.29999 8.00001
vt 1.29999 9
f 37/61/4 36/62/4 40/63/4 42/64/4 

usemtl FrontColor
vt 1.9685 0
vt 1.9685 1.9685
f 40/46/1 39/2/1 41/65/1 42/66/1 

g Mesh6 TableLeg2 Model

usemtl Color_M00
v 93.2029 -0.00672244 1.75
v 93.2029 -0.00672244 -3.25
v 98.2029 -0.00672244 -3.25
v 98.2029 -0.00672244 1.75
f 43/2/3 44/46/3 45/47/3 46/48/3 

usemtl Wood
v 93.2029 72.9933 1.75
v 93.2029 72.9933 -3.25
f 44/49/2 43/50/2 47/51/2 48/52/2 

v 98.2029 72.9933 1.75
f 43/53/6 46/54/6 49/55/6 47/56/6 

v 98.2029 72.9933 -3.25
f 46/57/5 45/58/5 50/59/5 49/60/5 

f 45/61/4 44/62/4 48/63/4 50/64/4 

usemtl Color_M00
f 48/46/1 47/2/1 49/65/1 50/66/1 

g Mesh7 TableLeg3 Model

usemtl FrontColor
v 93.2029 -0.00672244 -89.75
v 93.2029 -0.00672244 -94.75
v 98.2029 -0.00672244 -94.75
v 98.2029 -0.00672244 -89.75
f 51/2/3 52/46/3 53/47/3 54/48/3 

usemtl Wood
v 93.2029 72.9933 -89.75
v 93.2029 72.9933 -94.75
f 52/49/2 51/50/2 55/51/2 56/52/2 

v 98.2029 72.9933 -89.75
f 51/53/6 54/54/6 57/55/6 55/56/6 

v 98.2029 72.9933 -94.75
f 54/57/5 53/58/5 58/59/5 57/60/5 

f 53/61/4 52/62/4 56/63/4 58/64/4 

usemtl FrontColor
f 56/46/1 55/2/1 57/65/1 58/66/1 

g Mesh8 TableLeg4 Model

v 1.70285 -0.00672244 -89.75
v 1.70285 -0.00672244 -94.75
v 6.70285 -0.00672244 -94.75
v 6.70285 -0.00672244 -89.75
f 59/2/3 60/46/3 61/47/3 62/48/3 

usemtl Wood
v 1.70285 72.9933 -89.75
v 1.70285 72.9933 -94.75
f 60/49/2 59/50/2 63/51/2 64/52/2 

v 6.70285 72.9933 -89.75
f 59/53/6 62/54/6 65/55/6 63/56/6 

v 6.70285 72.9933 -94.75
f 62/57/5 61/58/5 66/59/5 65/60/5 

f 61/61/4 60/62/4 64/63/4 66/64/4 

usemtl FrontColor
f 64/46/1 63/2/1 65/65/1 66/66/1 

g Mesh9 TableSide1 Model

usemtl Wood
v 96.2029 62.9933 -89.75
v 96.2029 62.9933 -3.25
v 96.2029 72.9933 -3.25
v 96.2029 72.9933 -89.75
vt -8.65 2
f 67/27/2 68/2/2 69/14/2 70/67/2 

v 98.2029 62.9933 -3.25
vt -9.65 0
vt -9.45 0
vt -9.45 17.3
v 98.2029 62.9933 -89.75
vt -9.65 17.3
f 71/68/3 68/69/3 67/70/3 72/71/3 

usemtl FrontColor
vt 37.2047 0
vt 37.9921 0
v 98.2029 72.9933 -3.25
vt 37.9921 3.93701
vt 37.2047 3.93701
f 68/72/6 71/73/6 73/74/6 69/75/6 

usemtl Wood
v 98.2029 72.9933 -89.75
vt 8.65 2
f 71/2/5 72/33/5 74/76/5 73/14/5 

usemtl FrontColor
vt -37.9921 0
vt -37.2047 0
vt -37.2047 3.93701
vt -37.9921 3.93701
f 72/77/4 67/78/4 70/79/4 74/80/4 

vt 37.9921 34.0551
vt 37.2047 34.0551
f 69/72/1 73/73/1 74/81/1 70/82/1 

g Mesh10 TableSide2 Model

usemtl Wood
v 6.70285 62.9933 -92.75
vn 1.03026e-12 0 1
v 93.2029 62.9933 -92.75
v 93.2029 72.9933 -92.75
v 6.70285 72.9933 -92.75
f 75/27/8 76/2/8 77/14/8 78/67/8 

v 93.2029 62.9933 -94.75
vn -0 -1 -0
v 6.70285 62.9933 -94.75
f 79/68/9 76/69/9 75/70/9 80/71/9 

usemtl FrontColor
vn 1 0 -1.03026e-12
f 76/72/10 79/73/10 56/74/10 77/75/10 

usemtl Wood
vn -1.03026e-12 0 -1
v 6.70285 72.9933 -94.75
f 79/2/11 80/33/11 81/76/11 56/14/11 

usemtl FrontColor
vn -1 0 1.03026e-12
f 80/77/12 75/78/12 78/79/12 81/80/12 

f 77/72/1 56/73/1 81/81/1 78/82/1 

g Mesh11 TableSide3 Model

usemtl Wood
v 1.70285 62.9933 -89.75
v 1.70285 62.9933 -3.25
v 1.70285 72.9933 -3.25
v 1.70285 72.9933 -89.75
f 82/27/2 83/2/2 84/14/2 85/67/2 

v 3.70285 62.9933 -3.25
v 3.70285 62.9933 -89.75
f 86/68/3 83/69/3 82/70/3 87/71/3 

usemtl FrontColor
v 3.70285 72.9933 -3.25
f 83/72/6 86/73/6 88/74/6 84/75/6 

usemtl Wood
v 3.70285 72.9933 -89.75
f 86/2/5 87/33/5 89/76/5 88/14/5 

usemtl FrontColor
f 87/77/4 82/78/4 85/79/4 89/80/4 

f 84/72/1 88/73/1 89/81/1 85/82/1 

g Mesh12 Drawer1 Model

v 6.70285 62.9933 1.75
v 23.2029 67.682 1.75
vt -6.49606 1.84594
v 48.7029 62.9933 1.75
vt -16.5354 0
f 90/2/4 91/83/4 92/84/4

vt 0 3.93701
f 91/83/4 90/2/4 41/85/4

v 6.70285 62.9933 0.75
vt 0.393701 0
v 6.70285 72.9933 0.75
vt 0.393701 3.93701
f 90/2/5 93/86/5 94/87/5 41/85/5 

vt 16.5354 0
v 48.7029 62.9933 0.75
vt 16.5354 0.393701
v 47.7029 62.9933 0.75
vt 16.1417 0.393701
v 7.70285 62.9933 0.75
vt 0.393701 0.393701
vt 0 0.393701
f 92/88/1 95/89/1 96/90/1 97/91/1 93/92/1 90/2/1 

v 48.7029 72.9933 1.75
v 48.7029 72.9933 0.75
vt -0.393701 3.93701
vt -0.393701 0
f 98/85/2 99/93/2 95/94/2 92/2/2 

usemtl Wood
v 7.70285 72.9933 0.75
vt 0.1 0.2
vn 9.95784e-33 1 -2.25597e-14
vt -9.95784e-33 0.2
vt -9.95784e-33 -4.51195e-14
vt 4.2 -4.51195e-14
vt 4.2 0.2
v 47.7029 72.9933 0.75
vt 4.1 0.2
f 100/95/13 94/96/13 41/97/13 98/98/13 99/99/13 101/100/13 

vt -0.860033 3
vn 2.25597e-14 1 -5.24645e-16
vt -0.860034 2.87714
v 7.70285 72.9933 -42.25
vt 1.7815 2.87714
v 6.70285 72.9933 -42.25
vt 1.7815 3
f 94/101/14 100/102/14 102/103/14 103/104/14 

usemtl FrontColor
f 97/94/4 93/2/4 94/85/4 100/93/4 

v 6.70285 62.9933 -43.25
vt 0 17.7165
v 7.70285 62.9933 -42.25
vt 0.393701 17.3228
v 47.7029 62.9933 -42.25
vt 16.1417 17.3228
v 48.7029 62.9933 -42.25
vt 16.5354 17.3228
v 48.7029 62.9933 -43.25
vt 16.5354 17.7165
f 104/105/1 93/92/1 97/91/1 105/106/1 106/107/1 107/108/1 108/109/1 

vt 17.7165 0
v 6.70285 72.9933 -43.25
vt 17.7165 3.93701
vt 17.3228 3.93701
f 93/86/5 104/110/5 109/111/5 103/112/5 94/87/5 

usemtl Wood
vt -4.2 0
v 48.7029 72.9933 -43.25
vt -4.2 2
f 108/113/4 104/2/4 109/14/4 110/114/4 

vt 1.05864e-32 9
vn -1.05864e-32 1 4.51195e-14
vt 1.05864e-32 8.8
vt 0.1 8.8
v 47.7029 72.9933 -42.25
vt 4.1 8.8
v 48.7029 72.9933 -42.25
vt 4.2 8.8
vt 4.2 9
f 109/115/15 103/116/15 102/117/15 111/118/15 112/119/15 110/120/15 

vt 4.1 2
vt 0.1 2
vt 0.1 0
vt 4.1 0
f 111/121/6 102/122/6 105/123/6 106/124/6 

vt 4.4 0
vt 4.4 2
f 97/123/5 105/125/5 102/126/5 100/122/5 

vt 3.58904 6.00658
vt 3.58904 1.62301
vt 5.94521 1.62301
vt 5.94521 6.00658
f 97/127/1 96/128/1 106/129/1 105/130/1 

vt -4.1 0
vt -0.1 0
vt -0.1 2
vt -4.1 2
f 96/131/4 97/132/4 100/133/4 101/134/4 

usemtl FrontColor
vt -16.1417 0
vt -16.1417 3.93701
vt -16.5354 3.93701
f 95/84/4 96/135/4 101/136/4 99/137/4 

f 95/89/1 107/108/1 106/107/1 96/90/1 

vt -17.3228 3.93701
vt -17.3228 0
f 95/94/2 99/93/2 112/138/2 107/139/2 

usemtl Wood
vt 2.40745 6.45501
vn -2.25597e-14 1 -5.24645e-16
vt 2.40745 6.22751
vt 7.29884 6.22751
vt 7.29884 6.45501
f 112/140/16 111/141/16 101/142/16 99/143/16 

usemtl FrontColor
vt 16.1417 0
vt 16.5354 3.93701
vt 16.1417 3.93701
f 106/144/6 107/88/6 112/145/6 111/146/6 

vt -17.7165 3.93701
vt -17.7165 0
f 112/138/2 110/147/2 108/148/2 107/139/2 

usemtl Wood
vt -4.4 0
vt -4.4 2
f 106/149/2 96/132/2 101/133/2 111/150/2 

usemtl FrontColor
v 32.2029 68.682 1.75
vt -10.0394 2.23964
f 98/137/4 113/151/4 41/85/4

v 32.2029 67.682 1.75
vt -10.0394 1.84594
f 98/137/4 114/152/4 113/151/4

f 92/84/4 114/152/4 98/137/4

f 114/152/4 92/84/4 91/83/4

v 23.6755 67.682 1.75
vt -6.68214 1.84594
f 114/152/4 91/83/4 115/153/4

vt 6.68214 0
vt 6.49606 2.66454e-15
v 23.2029 67.682 2.75
vt 6.49606 -0.393701
v 23.6755 67.682 2.75
vt 6.68214 -0.393701
v 23.6755 67.682 2.53279
vt 6.68214 -0.308185
f 115/154/1 91/155/1 116/156/1 117/157/1 118/158/1 

vt 5.01118e-14 1.84594
vn 1 0 7.30401e-15
v 23.2029 68.682 1.75
vt 5.01118e-14 2.23964
v 23.2029 68.682 2.75
vt -0.393701 2.23964
vt -0.393701 1.84594
f 91/159/17 119/160/17 120/161/17 116/162/17 

vt -6.49606 2.23964
f 91/83/4 41/85/4 119/163/4

v 23.6755 68.682 1.75
vt -6.68214 2.23964
f 119/163/4 41/85/4 121/164/4

v 31.7261 68.682 1.75
vt -9.85167 2.23964
f 121/164/4 41/85/4 122/165/4

f 122/165/4 41/85/4 113/151/4

vt -9.85167 1.77636e-15
vt -10.0394 0
v 32.2029 68.682 2.75
vt -10.0394 -0.393701
v 31.7261 68.682 2.75
vt -9.85167 -0.393701
v 31.7261 68.682 2.53279
vt -9.85167 -0.308185
f 122/166/3 113/167/3 123/168/3 124/169/3 125/170/3 

vt -4.75048e-14 2.23964
vn -1 0 -4.73185e-15
vt -4.75048e-14 1.84594
v 32.2029 67.682 2.75
vt 0.393701 1.84594
vt 0.393701 2.23964
f 113/171/18 114/172/18 126/173/18 123/174/18 

vt 10.0394 0
v 31.7261 67.682 1.75
vt 9.85167 0
v 31.7261 67.682 2.53279
vt 9.85167 -0.308185
v 31.7261 67.682 2.75
vt 9.85167 -0.393701
vt 10.0394 -0.393701
f 114/175/1 127/176/1 128/177/1 129/178/1 126/179/1 

vt -9.85167 1.84594
f 114/152/4 115/153/4 127/180/4

f 121/164/4 127/180/4 115/153/4

f 127/180/4 121/164/4 122/165/4

vt 1.15345e-13 2.23964
vn 1 2.60614e-29 1.15278e-14
vt -0.308185 2.23964
vt -0.308185 1.84594
vt 1.13568e-13 1.84594
f 122/181/19 125/182/19 128/183/19 127/184/19 

f 129/162/5 128/183/5 125/182/5 124/161/5 

f 128/177/1 118/158/1 117/157/1 129/178/1 

vt 6.68214 1.84594
vt 9.85167 1.84594
vt 9.85167 2.23964
v 23.6755 68.682 2.53279
vt 6.68214 2.23964
f 118/185/6 128/186/6 125/187/6 130/188/6 

vt -6.68214 -0.308185
v 23.6755 68.682 2.75
vt -6.68214 -0.393701
f 130/189/3 125/170/3 124/169/3 131/190/3 

vn 1.48869e-16 -5.71043e-15 -1
f 129/180/20 117/153/20 131/164/20 124/165/20 

vn 7.30886e-15 -3.45446e-15 -1
f 120/163/21 131/164/21 117/153/21 116/83/21 

vt -6.49606 2.66454e-15
vt -6.68214 2.66454e-15
vt -6.49606 -0.393701
f 119/191/3 121/192/3 130/189/3 131/190/3 120/193/3 

vt -7.70307e-14 1.84594
vn -1 -3.99952e-29 -1.15278e-14
vt 0.308185 1.84594
vt 0.308185 2.23964
vt -7.96952e-14 2.23964
f 115/194/22 118/195/22 130/196/22 121/197/22 

f 131/174/2 130/196/2 118/195/2 117/173/2 

vn 4.73185e-15 -2.25597e-15 -1
f 123/151/23 126/152/23 129/180/23 124/165/23 

g Mesh13 Drawer2 Model

usemtl Color_M00
v 51.2029 62.9933 1.75
v 67.7029 67.682 1.75
v 93.2029 62.9933 1.75
f 132/2/4 133/83/4 134/84/4

v 51.2029 72.9933 1.75
f 133/83/4 132/2/4 135/85/4

v 51.2029 62.9933 0.75
v 51.2029 72.9933 0.75
f 132/2/5 136/86/5 137/87/5 135/85/5 

v 93.2029 62.9933 0.75
v 92.2029 62.9933 0.75
v 52.2029 62.9933 0.75
f 134/88/1 138/89/1 139/90/1 140/91/1 136/92/1 132/2/1 

v 93.2029 72.9933 1.75
v 93.2029 72.9933 0.75
f 141/85/2 142/93/2 138/94/2 134/2/2 

usemtl Wood
v 52.2029 72.9933 0.75
v 92.2029 72.9933 0.75
f 143/95/13 137/96/13 135/97/13 141/98/13 142/99/13 144/100/13 

v 52.2029 72.9933 -42.25
v 51.2029 72.9933 -42.25
f 137/101/14 143/102/14 145/103/14 146/104/14 

usemtl Color_M00
f 140/94/4 136/2/4 137/85/4 143/93/4 

v 51.2029 62.9933 -43.25
v 52.2029 62.9933 -42.25
v 92.2029 62.9933 -42.25
v 93.2029 62.9933 -42.25
v 93.2029 62.9933 -43.25
f 147/105/1 136/92/1 140/91/1 148/106/1 149/107/1 150/108/1 151/109/1 

v 51.2029 72.9933 -43.25
f 136/86/5 147/110/5 152/111/5 146/112/5 137/87/5 

usemtl Wood
v 93.2029 72.9933 -43.25
f 151/113/4 147/2/4 152/14/4 153/114/4 

v 92.2029 72.9933 -42.25
v 93.2029 72.9933 -42.25
f 152/115/15 146/116/15 145/117/15 154/118/15 155/119/15 153/120/15 

f 154/121/6 145/122/6 148/123/6 149/124/6 

f 140/123/5 148/125/5 145/126/5 143/122/5 

f 140/127/1 139/128/1 149/129/1 148/130/1 

f 139/131/4 140/132/4 143/133/4 144/134/4 

usemtl Color_M00
f 138/84/4 139/135/4 144/136/4 142/137/4 

f 138/89/1 150/108/1 149/107/1 139/90/1 

f 138/94/2 142/93/2 155/138/2 150/139/2 

usemtl Wood
f 155/140/16 154/141/16 144/142/16 142/143/16 

usemtl Color_M00
f 149/144/6 150/88/6 155/145/6 154/146/6 

f 155/138/2 153/147/2 151/148/2 150/139/2 

usemtl Wood
f 149/149/2 139/132/2 144/133/2 154/150/2 

usemtl Color_M00
v 76.7029 68.682 1.75
f 141/137/4 156/151/4 135/85/4

v 76.7029 67.682 1.75
f 141/137/4 157/152/4 156/151/4

f 134/84/4 157/152/4 141/137/4

f 157/152/4 134/84/4 133/83/4

v 68.1755 67.682 1.75
f 157/152/4 133/83/4 158/153/4

v 67.7029 67.682 2.75
v 68.1755 67.682 2.75
v 68.1755 67.682 2.53279
f 158/154/1 133/155/1 159/156/1 160/157/1 161/158/1 

v 67.7029 68.682 1.75
v 67.7029 68.682 2.75
f 133/159/17 162/160/17 163/161/17 159/162/17 

f 133/83/4 135/85/4 162/163/4

v 68.1755 68.682 1.75
f 162/163/4 135/85/4 164/164/4

v 76.2261 68.682 1.75
f 164/164/4 135/85/4 165/165/4

f 165/165/4 135/85/4 156/151/4

v 76.7029 68.682 2.75
v 76.2261 68.682 2.75
v 76.2261 68.682 2.53279
f 165/166/3 156/167/3 166/168/3 167/169/3 168/170/3 

v 76.7029 67.682 2.75
f 156/171/18 157/172/18 169/173/18 166/174/18 

v 76.2261 67.682 1.75
v 76.2261 67.682 2.53279
v 76.2261 67.682 2.75
f 157/175/1 170/176/1 171/177/1 172/178/1 169/179/1 

f 157/152/4 158/153/4 170/180/4

f 164/164/4 170/180/4 158/153/4

f 170/180/4 164/164/4 165/165/4

f 165/181/19 168/182/19 171/183/19 170/184/19 

f 172/162/5 171/183/5 168/182/5 167/161/5 

f 171/177/1 161/158/1 160/157/1 172/178/1 

v 68.1755 68.682 2.53279
f 161/185/6 171/186/6 168/187/6 173/188/6 

v 68.1755 68.682 2.75
f 173/189/3 168/170/3 167/169/3 174/190/3 

f 172/180/20 160/153/20 174/164/20 167/165/20 

f 163/163/21 174/164/21 160/153/21 159/83/21 

f 162/191/3 164/192/3 173/189/3 174/190/3 163/193/3 

f 158/194/22 161/195/22 173/196/22 164/197/22 

f 174/174/2 173/196/2 161/195/2 160/173/2 

f 166/151/23 169/152/23 172/180/23 167/165/23 

