{
  "asset": {
    "version": "2.0",
    "generator": "Sketchup glTF Exporter v1.2.6 by Centaur"
  },
  "scene": 0,
  "scenes": [
    {
      "nodes": [
        0
      ]
    }
  ],
  "samplers": [
    {
    }
  ],
  "nodes": [
    {
      "name": "root",
      "mesh": 0
    }
  ],
  "materials": [
    {
      "pbrMetallicRoughness": {
        "baseColorFactor": [
          0.2176,
          0.2176,
          0.2176,
          1.0
        ],
        "metallicFactor": 0.1,
        "roughnessFactor": 0.9
      },
      "name": "default material",
      "doubleSided": true
    },
    {
      "pbrMetallicRoughness": {
        "baseColorTexture": {
          "index": 0
        },
        "metallicFactor": 0.1,
        "roughnessFactor": 0.9
      },
      "name": "Cladding Stucco White"
    }
  ],
  "images": [
    {
      "bufferView": 0,
      "mimeType": "image/jpeg"
    }
  ],
  "textures": [
    {
      "source": 0,
      "sampler": 0
    }
  ],
  "meshes": [
    {
      "primitives": [
        {
          "attributes": {
            "POSITION": 0,
            "NORMAL": 1
          },
          "indices": 5,
          "mode": 4,
          "material": 0
        },
        {
          "attributes": {
            "POSITION": 2,
            "NORMAL": 3,
            "TEXCOORD_0": 4
          },
          "indices": 6,
          "mode": 4,
          "material": 1
        }
      ]
    }
  ],
  "accessors": [
    {
      "bufferView": 1,
      "componentType": 5126,
      "count": 800,
      "type": "VEC3",
      "min": [
        -0.1,
        -6.490628035480972e-16,
        -10.6
      ],
      "max": [
        9.100000000000001,
        2.7,
        0.10000000000000221
      ]
    },
    {
      "bufferView": 2,
      "componentType": 5126,
      "count": 800,
      "type": "VEC3",
      "min": [
        -1.0,
        -1.0,
        -1.0
      ],
      "max": [
        1.0,
        1.0,
        1.0
      ]
    },
    {
      "bufferView": 3,
      "componentType": 5126,
      "count": 33,
      "type": "VEC3",
      "min": [
        -0.1,
        -6.490628035480972e-16,
        -10.6
      ],
      "max": [
        9.100000000000001,
        2.7,
        2.228857174448183e-15
      ]
    },
    {
      "bufferView": 4,
      "componentType": 5126,
      "count": 33,
      "type": "VEC3",
      "min": [
        -1.0,
        -6.123233995736766e-17,
        -1.0
      ],
      "max": [
        1.0,
        6.123233995736766e-17,
        1.0
      ]
    },
    {
      "bufferView": 5,
      "componentType": 5126,
      "count": 33,
      "type": "VEC2",
      "min": [
        -22.96587926509186,
        -2.937007874015748
      ],
      "max": [
        22.96587926509186,
        1.0
      ]
    },
    {
      "bufferView": 6,
      "componentType": 5123,
      "count": 1728,
      "type": "SCALAR"
    },
    {
      "bufferView": 7,
      "componentType": 5121,
      "count": 63,
      "type": "SCALAR"
    }
  ],
  "bufferViews": [
    {
      "buffer": 0,
      "byteLength": 15888
    },
    {
      "buffer": 0,
      "byteOffset": 15888,
      "byteLength": 9600,
      "target": 34962,
      "byteStride": 12
    },
    {
      "buffer": 0,
      "byteOffset": 25488,
      "byteLength": 9600,
      "target": 34962,
      "byteStride": 12
    },
    {
      "buffer": 0,
      "byteOffset": 35088,
      "byteLength": 396,
      "target": 34962,
      "byteStride": 12
    },
    {
      "buffer": 0,
      "byteOffset": 35484,
      "byteLength": 396,
      "target": 34962,
      "byteStride": 12
    },
    {
      "buffer": 0,
      "byteOffset": 35880,
      "byteLength": 264,
      "target": 34962,
      "byteStride": 8
    },
    {
      "buffer": 0,
      "byteOffset": 36144,
      "byteLength": 3456,
      "target": 34963
    },
    {
      "buffer": 0,
      "byteOffset": 39600,
      "byteLength": 63,
      "target": 34963
    }
  ],
  "buffers": [
    {
      "uri": "data:application/octet-stream;base64,",
      "byteLength": 39663
    }
  ]
}