{
  "asset": {
    "version": "2.0",
    "generator": "Sketchup glTF Exporter v1.2.6 by Centaur"
  },
  "scene": 0,
  "scenes": [
    {
      "nodes": [
        0
      ]
    }
  ],
  "samplers": [
    {
    }
  ],
  "nodes": [
    {
      "name": "root",
      "mesh": 0
    }
  ],
  "materials": [
    {
      "pbrMetallicRoughness": {
        "baseColorFactor": [
          0.2176,
          0.2176,
          0.2176,
          1.0
        ],
        "metallicFactor": 0.1,
        "roughnessFactor": 0.9
      },
      "name": "default material",
      "doubleSided": true
    },
    {
      "pbrMetallicRoughness": {
        "baseColorTexture": {
          "index": 0
        },
        "metallicFactor": 0.1,
        "roughnessFactor": 0.9
      },
      "name": "Cladding Stucco White"
    },
    {
      "pbrMetallicRoughness": {
        "baseColorTexture": {
          "index": 1
        },
        "metallicFactor": 0.1,
        "roughnessFactor": 0.9
      },
      "name": "Tile Limestone Large"
    }
  ],
  "images": [
    {
      "bufferView": 0,
      "mimeType": "image/jpeg"
    },
    {
      "bufferView": 1,
      "mimeType": "image/jpeg"
    }
  ],
  "textures": [
    {
      "source": 0,
      "sampler": 0
    },
    {
      "source": 1,
      "sampler": 0
    }
  ],
  "meshes": [
    {
      "primitives": [
        {
          "attributes": {
            "POSITION": 0,
            "NORMAL": 1
          },
          "indices": 5,
          "mode": 4,
          "material": 0
        },
        {
          "attributes": {
            "POSITION": 2,
            "NORMAL": 3,
            "TEXCOORD_0": 4
          },
          "indices": 6,
          "mode": 4,
          "material": 1
        },
        {
          "attributes": {
            "POSITION": 2,
            "NORMAL": 3,
            "TEXCOORD_0": 4
          },
          "indices": 7,
          "mode": 4,
          "material": 2
        }
      ]
    }
  ],
  "accessors": [
    {
      "bufferView": 2,
      "componentType": 5126,
      "count": 853,
      "type": "VEC3",
      "min": [
        -0.1,
        -0.10000000000000064,
        -10.6
      ],
      "max": [
        9.100000000000001,
        2.7,
        0.10000000000000221
      ]
    },
    {
      "bufferView": 3,
      "componentType": 5126,
      "count": 853,
      "type": "VEC3",
      "min": [
        -1.0,
        -1.0,
        -1.0
      ],
      "max": [
        1.0,
        1.0,
        1.0
      ]
    },
    {
      "bufferView": 4,
      "componentType": 5126,
      "count": 63,
      "type": "VEC3",
      "min": [
        -0.1,
        -6.490628035480972e-16,
        -10.6
      ],
      "max": [
        9.100000000000001,
        2.7,
        2.228857174448183e-15
      ]
    },
    {
      "bufferView": 5,
      "componentType": 5126,
      "count": 63,
      "type": "VEC3",
      "min": [
        -1.0,
        -6.123233995736766e-17,
        -1.0
      ],
      "max": [
        1.0,
        1.0,
        1.0
      ]
    },
    {
      "bufferView": 6,
      "componentType": 5126,
      "count": 63,
      "type": "VEC2",
      "min": [
        -22.96587926509186,
        -33.44881889763779
      ],
      "max": [
        29.527559055118108,
        1.0
      ]
    },
    {
      "bufferView": 7,
      "componentType": 5123,
      "count": 1923,
      "type": "SCALAR"
    },
    {
      "bufferView": 8,
      "componentType": 5121,
      "count": 93,
      "type": "SCALAR"
    },
    {
      "bufferView": 8,
      "componentType": 5121,
      "count": 42,
      "type": "SCALAR",
      "byteOffset": 93
    }
  ],
  "bufferViews": [
    {
      "buffer": 0,
      "byteLength": 15888
    },
    {
      "buffer": 0,
      "byteOffset": 15888,
      "byteLength": 12789
    },
    {
      "buffer": 0,
      "byteOffset": 28680,
      "byteLength": 10236,
      "target": 34962,
      "byteStride": 12
    },
    {
      "buffer": 0,
      "byteOffset": 38916,
      "byteLength": 10236,
      "target": 34962,
      "byteStride": 12
    },
    {
      "buffer": 0,
      "byteOffset": 49152,
      "byteLength": 756,
      "target": 34962,
      "byteStride": 12
    },
    {
      "buffer": 0,
      "byteOffset": 49908,
      "byteLength": 756,
      "target": 34962,
      "byteStride": 12
    },
    {
      "buffer": 0,
      "byteOffset": 50664,
      "byteLength": 504,
      "target": 34962,
      "byteStride": 8
    },
    {
      "buffer": 0,
      "byteOffset": 51168,
      "byteLength": 3846,
      "target": 34963
    },
    {
      "buffer": 0,
      "byteOffset": 55014,
      "byteLength": 135,
      "target": 34963
    }
  ],
  "buffers": [
    {
      "uri": "data:application/octet-stream;base64,",
      "byteLength": 55149
    }
  ]
}